<?xml version="1.0" encoding="UTF-8" standalone="no"?>
<!DOCTYPE svg PUBLIC "-//W3C//DTD SVG 1.0//EN" "http://www.w3.org/TR/2001/PR-SVG-20010719/DTD/svg10.dtd">
<svg width="87cm" height="152cm" viewBox="-435 -249 1729 3034" xmlns="http://www.w3.org/2000/svg" xmlns:xlink="http://www.w3.org/1999/xlink">
  <g>
    <rect style="fill: #ffffff" x="44.1776" y="-247.222" width="790" height="188.996"/>
    <rect style="fill: none; fill-opacity:0; stroke-width: 2; stroke: #000000" x="44.1776" y="-247.222" width="790" height="188.996"/>
    <text font-size="12.8" style="fill: #000000;text-anchor:middle;font-family:sans-serif;font-style:normal;font-weight:normal" x="439.178" y="-219.924">
      <tspan x="439.178" y="-219.924">Top Block Comment </tspan>
      <tspan x="439.178" y="-203.924">CS V13 - Object-Oriented Programming (CRN #: 70226)					</tspan>
      <tspan x="439.178" y="-187.924">  Fall 2022 - Dr. Fazelpour					</tspan>
      <tspan x="439.178" y="-171.924">Team 02					</tspan>
      <tspan x="439.178" y="-155.924">Members: Alvarez, Martin (05), Angel, Ricardo (06), Arroyo, Jacqueline (07), and Cabrera, Isac (08)					</tspan>
      <tspan x="439.178" y="-139.924">Team Coordinator: Arroyo, Jacqueline (07); 					</tspan>
      <tspan x="439.178" y="-123.924">Participant Members: Alvarez, Martin (05), Angel, Ricardo (06), Arroyo, Jacqueline (07), Cabrera, Isac (08) 					</tspan>
      <tspan x="439.178" y="-107.924">Non-Participant Members: None					</tspan>
      <tspan x="439.178" y="-91.9242">Group Project 7 (GP_07)					</tspan>
      <tspan x="439.178" y="-75.9242"></tspan>
    </text>
  </g>
  <g>
    <path style="fill: #ffffff" d="M -4.38195 1113.65 L 85.8926,1113.65 C 98.357,1113.65 108.461,1120.32 108.461,1128.54 C 108.461,1136.76 98.357,1143.42 85.8926,1143.42 L -4.38195,1143.42 C -16.8463,1143.42 -26.9506,1136.76 -26.9506,1128.54 C -26.9506,1120.32 -16.8463,1113.65 -4.38195,1113.65z"/>
    <path style="fill: none; fill-opacity:0; stroke-width: 2; stroke: #000000" d="M -4.38195 1113.65 L 85.8926,1113.65 C 98.357,1113.65 108.461,1120.32 108.461,1128.54 C 108.461,1136.76 98.357,1143.42 85.8926,1143.42 L -4.38195,1143.42 C -16.8463,1143.42 -26.9506,1136.76 -26.9506,1128.54 C -26.9506,1120.32 -16.8463,1113.65 -4.38195,1113.65"/>
    <text font-size="12.8" style="fill: #000000;text-anchor:middle;font-family:sans-serif;font-style:normal;font-weight:normal" x="40.7553" y="1133.34">
      <tspan x="40.7553" y="1133.34">start</tspan>
    </text>
  </g>
  <g>
    <line style="fill: none; fill-opacity:0; stroke-width: 2; stroke: #000000" x1="40.7553" y1="1143.42" x2="40.6065" y2="1205.69"/>
    <polygon style="fill: #000000" points="40.5885,1213.19 35.6125,1203.18 40.6065,1205.69 45.6124,1203.21 "/>
    <polygon style="fill: none; fill-opacity:0; stroke-width: 2; stroke: #000000" points="40.5885,1213.19 35.6125,1203.18 40.6065,1205.69 45.6124,1203.21 "/>
  </g>
  <g>
    <rect style="fill: #ffffff" x="-433.932" y="1272.07" width="224.05" height="249.416"/>
    <rect style="fill: none; fill-opacity:0; stroke-width: 2; stroke: #000000" x="-433.932" y="1272.07" width="224.05" height="249.416"/>
    <text font-size="12.8" style="fill: #000000;text-anchor:start;font-family:sans-serif;font-style:normal;font-weight:normal" x="-424.932" y="1337.58">
      <tspan x="-424.932" y="1337.58">           PsuedoCode CCL-</tspan>
      <tspan x="-424.932" y="1353.58">       ----------------------------</tspan>
      <tspan x="-424.932" y="1369.58">start </tspan>
      <tspan x="-424.932" y="1385.58">j = 2</tspan>
      <tspan x="-424.932" y="1401.58">loop(j &gt;= 0)</tspan>
      <tspan x="-424.932" y="1417.58">    print('j = ', j)</tspan>
      <tspan x="-424.932" y="1433.58">    j= j - 1</tspan>
      <tspan x="-424.932" y="1449.58">endloop</tspan>
      <tspan x="-424.932" y="1465.58">stop </tspan>
    </text>
  </g>
  <text font-size="12.8" style="fill: #000000;text-anchor:start;font-family:sans-serif;font-style:normal;font-weight:normal" x="566.274" y="457.36">
    <tspan x="566.274" y="457.36"></tspan>
  </text>
  <g>
    <polygon style="fill: #ffffff" points="46.7291,1399.03 120.151,1441.36 46.7291,1483.69 -26.6924,1441.36 "/>
    <polygon style="fill: none; fill-opacity:0; stroke-width: 2; stroke: #000000" points="46.7291,1399.03 120.151,1441.36 46.7291,1483.69 -26.6924,1441.36 "/>
    <text font-size="12.8" style="fill: #000000;text-anchor:middle;font-family:sans-serif;font-style:normal;font-weight:normal" x="46.7291" y="1446.16">
      <tspan x="46.7291" y="1446.16">loop (j &gt;= 0)</tspan>
    </text>
  </g>
  <g>
    <rect style="fill: #ffffff" x="-9.7084" y="1536.62" width="115.351" height="69.6484"/>
    <rect style="fill: none; fill-opacity:0; stroke-width: 2; stroke: #000000" x="-9.7084" y="1536.62" width="115.351" height="69.6484"/>
    <text font-size="12.8" style="fill: #000000;text-anchor:middle;font-family:sans-serif;font-style:normal;font-weight:normal" x="47.967" y="1576.24">
      <tspan x="47.967" y="1576.24">print('j =', j)</tspan>
    </text>
  </g>
  <g>
    <rect style="fill: #ffffff" x="-14.938" y="1685.77" width="124.864" height="67.27"/>
    <rect style="fill: none; fill-opacity:0; stroke-width: 2; stroke: #000000" x="-14.938" y="1685.77" width="124.864" height="67.27"/>
    <text font-size="12.8" style="fill: #000000;text-anchor:middle;font-family:sans-serif;font-style:normal;font-weight:normal" x="47.4942" y="1724.21">
      <tspan x="47.4942" y="1724.21">j = j - 1</tspan>
    </text>
  </g>
  <g>
    <path style="fill: #ffffff" d="M -1.65894 1815.71 L 99.0253,1815.71 C 112.927,1815.71 124.196,1831.41 124.196,1850.79 C 124.196,1870.16 112.927,1885.87 99.0253,1885.87 L -1.65894,1885.87 C -15.5605,1885.87 -26.83,1870.16 -26.83,1850.79 C -26.83,1831.41 -15.5605,1815.71 -1.65894,1815.71z"/>
    <path style="fill: none; fill-opacity:0; stroke-width: 2; stroke: #000000" d="M -1.65894 1815.71 L 99.0253,1815.71 C 112.927,1815.71 124.196,1831.41 124.196,1850.79 C 124.196,1870.16 112.927,1885.87 99.0253,1885.87 L -1.65894,1885.87 C -15.5605,1885.87 -26.83,1870.16 -26.83,1850.79 C -26.83,1831.41 -15.5605,1815.71 -1.65894,1815.71"/>
    <text font-size="12.8" style="fill: #000000;text-anchor:middle;font-family:sans-serif;font-style:normal;font-weight:normal" x="48.6832" y="1855.59">
      <tspan x="48.6832" y="1855.59">stop</tspan>
    </text>
  </g>
  <text font-size="12.8" style="fill: #000000;text-anchor:start;font-family:sans-serif;font-style:normal;font-weight:normal" x="57.6034" y="1511.42">
    <tspan x="57.6034" y="1511.42">True </tspan>
  </text>
  <text font-size="12.8" style="fill: #000000;text-anchor:start;font-family:sans-serif;font-style:normal;font-weight:normal" x="190.86" y="1427.77">
    <tspan x="190.86" y="1427.77">False</tspan>
  </text>
  <g>
    <path style="fill: #ffffff" d="M 11.3502 1214.94 L 82.0889,1214.94 L 96.2367,1235.57 L 82.0889,1256.2 L 11.3502,1256.2 L -2.7976,1235.57 L 11.3502,1214.94z"/>
    <path style="fill: none; fill-opacity:0; stroke-width: 2; stroke: #000000" d="M 11.3502 1214.94 L 82.0889,1214.94 L 96.2367,1235.57 L 82.0889,1256.2 L 11.3502,1256.2 L -2.7976,1235.57 L 11.3502,1214.94"/>
    <text font-size="12.8" style="fill: #000000;text-anchor:middle;font-family:sans-serif;font-style:normal;font-weight:normal" x="46.7195" y="1240.37">
      <tspan x="46.7195" y="1240.37">j = 2</tspan>
    </text>
  </g>
  <g>
    <ellipse style="fill: #ffffff" cx="46.5296" cy="1328.78" rx="37.7863" ry="36.5451"/>
    <ellipse style="fill: none; fill-opacity:0; stroke-width: 2; stroke: #000000" cx="46.5296" cy="1328.78" rx="37.7863" ry="36.5451"/>
    <text font-size="12.8" style="fill: #000000;text-anchor:middle;font-family:sans-serif;font-style:normal;font-weight:normal" x="46.5296" y="1333.58">
      <tspan x="46.5296" y="1333.58">endloop</tspan>
    </text>
  </g>
  <g>
    <line style="fill: none; fill-opacity:0; stroke-width: 2; stroke: #000000" x1="46.7195" y1="1256.2" x2="46.581" y2="1282.5"/>
    <polygon style="fill: #000000" points="46.5414,1290 41.5942,1279.97 46.581,1282.5 51.5941,1280.03 "/>
    <polygon style="fill: none; fill-opacity:0; stroke-width: 2; stroke: #000000" points="46.5414,1290 41.5942,1279.97 46.581,1282.5 51.5941,1280.03 "/>
  </g>
  <g>
    <line style="fill: none; fill-opacity:0; stroke-width: 2; stroke: #000000" x1="46.5296" y1="1365.33" x2="46.6715" y2="1389.3"/>
    <polygon style="fill: #000000" points="46.7158,1396.8 41.6568,1386.83 46.6715,1389.3 51.6566,1386.77 "/>
    <polygon style="fill: none; fill-opacity:0; stroke-width: 2; stroke: #000000" points="46.7158,1396.8 41.6568,1386.83 46.6715,1389.3 51.6566,1386.77 "/>
  </g>
  <g>
    <line style="fill: none; fill-opacity:0; stroke-width: 2; stroke: #000000" x1="46.7291" y1="1483.69" x2="47.7394" y2="1526.88"/>
    <polygon style="fill: #000000" points="47.9147,1534.38 42.6823,1524.5 47.7394,1526.88 52.6795,1524.27 "/>
    <polygon style="fill: none; fill-opacity:0; stroke-width: 2; stroke: #000000" points="47.9147,1534.38 42.6823,1524.5 47.7394,1526.88 52.6795,1524.27 "/>
  </g>
  <g>
    <line style="fill: none; fill-opacity:0; stroke-width: 2; stroke: #000000" x1="47.967" y1="1606.26" x2="47.5521" y2="1676.03"/>
    <polygon style="fill: #000000" points="47.5075,1683.53 42.567,1673.5 47.5521,1676.03 52.5669,1673.56 "/>
    <polygon style="fill: none; fill-opacity:0; stroke-width: 2; stroke: #000000" points="47.5075,1683.53 42.567,1673.5 47.5521,1676.03 52.5669,1673.56 "/>
  </g>
  <g>
    <polyline style="fill: none; fill-opacity:0; stroke-width: 2; stroke: #000000" points="-14.938,1719.41 -151.833,1719.41 -151.833,1328.78 -0.992672,1328.78 "/>
    <polygon style="fill: #000000" points="6.50733,1328.78 -3.49267,1333.78 -0.992672,1328.78 -3.49267,1323.78 "/>
    <polygon style="fill: none; fill-opacity:0; stroke-width: 2; stroke: #000000" points="6.50733,1328.78 -3.49267,1333.78 -0.992672,1328.78 -3.49267,1323.78 "/>
  </g>
  <g>
    <polyline style="fill: none; fill-opacity:0; stroke-width: 2; stroke: #000000" points="115.144,1444.42 290.004,1444.42 290.004,1850.79 133.932,1850.79 "/>
    <polygon style="fill: #000000" points="126.432,1850.79 136.432,1845.79 133.932,1850.79 136.432,1855.79 "/>
    <polygon style="fill: none; fill-opacity:0; stroke-width: 2; stroke: #000000" points="126.432,1850.79 136.432,1845.79 133.932,1850.79 136.432,1855.79 "/>
  </g>
  <g>
    <rect style="fill: #ffffff" x="495.274" y="198.458" width="148.95" height="230"/>
    <rect style="fill: none; fill-opacity:0; stroke-width: 2; stroke: #000000" x="495.274" y="198.458" width="148.95" height="230"/>
    <text font-size="12.8" style="fill: #000000;text-anchor:start;font-family:sans-serif;font-style:normal;font-weight:normal" x="504.274" y="222.258">
      <tspan x="504.274" y="222.258">Pseudocode:</tspan>
      <tspan x="504.274" y="238.258">HRL- </tspan>
      <tspan x="504.274" y="254.258">_______________</tspan>
      <tspan x="504.274" y="270.258"></tspan>
      <tspan x="504.274" y="286.258">start</tspan>
      <tspan x="504.274" y="302.258">tot = input('Total #: ')</tspan>
      <tspan x="504.274" y="318.258">j = tot</tspan>
      <tspan x="504.274" y="334.258">loop (j&gt;0)</tspan>
      <tspan x="504.274" y="350.258">    print('j = ', j)</tspan>
      <tspan x="504.274" y="366.258">    j = j - 1</tspan>
      <tspan x="504.274" y="382.258">endloop</tspan>
      <tspan x="504.274" y="398.258">stop</tspan>
      <tspan x="504.274" y="414.258"></tspan>
    </text>
  </g>
  <g>
    <path style="fill: #ffffff" d="M 978.166 15.4584 L 1086.63,15.4584 C 1101.61,15.4584 1113.75,24.4127 1113.75,35.4584 C 1113.75,46.5041 1101.61,55.4584 1086.63,55.4584 L 978.166,55.4584 C 963.189,55.4584 951.049,46.5041 951.049,35.4584 C 951.049,24.4127 963.189,15.4584 978.166,15.4584z"/>
    <path style="fill: none; fill-opacity:0; stroke-width: 2; stroke: #000000" d="M 978.166 15.4584 L 1086.63,15.4584 C 1101.61,15.4584 1113.75,24.4127 1113.75,35.4584 C 1113.75,46.5041 1101.61,55.4584 1086.63,55.4584 L 978.166,55.4584 C 963.189,55.4584 951.049,46.5041 951.049,35.4584 C 951.049,24.4127 963.189,15.4584 978.166,15.4584"/>
    <text font-size="12.8" style="fill: #000000;text-anchor:middle;font-family:sans-serif;font-style:normal;font-weight:normal" x="1032.4" y="40.2584">
      <tspan x="1032.4" y="40.2584">start</tspan>
    </text>
  </g>
  <g>
    <polygon style="fill: #ffffff" points="924.642,129.458 1157.75,129.458 1143.19,169.458 910.083,169.458 "/>
    <polygon style="fill: none; fill-opacity:0; stroke-width: 2; stroke: #000000" points="924.642,129.458 1157.75,129.458 1143.19,169.458 910.083,169.458 "/>
    <text font-size="12.8" style="fill: #000000;text-anchor:middle;font-family:sans-serif;font-style:normal;font-weight:normal" x="1033.92" y="154.258">
      <tspan x="1033.92" y="154.258">tot = input('Total #: ')</tspan>
    </text>
  </g>
  <g>
    <polygon style="fill: #ffffff" points="1034.75,462.938 1103.79,497.458 1034.75,531.977 965.711,497.458 "/>
    <polygon style="fill: none; fill-opacity:0; stroke-width: 2; stroke: #000000" points="1034.75,462.938 1103.79,497.458 1034.75,531.977 965.711,497.458 "/>
    <text font-size="12.8" style="fill: #000000;text-anchor:middle;font-family:sans-serif;font-style:normal;font-weight:normal" x="1034.75" y="502.258">
      <tspan x="1034.75" y="502.258">loop (j&gt;0)</tspan>
    </text>
  </g>
  <g>
    <polygon style="fill: #ffffff" points="991.449,606.458 1094.43,606.458 1078.05,651.458 975.071,651.458 "/>
    <polygon style="fill: none; fill-opacity:0; stroke-width: 2; stroke: #000000" points="991.449,606.458 1094.43,606.458 1078.05,651.458 975.071,651.458 "/>
    <text font-size="12.8" style="fill: #000000;text-anchor:middle;font-family:sans-serif;font-style:normal;font-weight:normal" x="1034.75" y="633.758">
      <tspan x="1034.75" y="633.758">print('j = ', j)</tspan>
    </text>
  </g>
  <g>
    <rect style="fill: #ffffff" x="1001.67" y="726.458" width="66.15" height="38"/>
    <rect style="fill: none; fill-opacity:0; stroke-width: 2; stroke: #000000" x="1001.67" y="726.458" width="66.15" height="38"/>
    <text font-size="12.8" style="fill: #000000;text-anchor:middle;font-family:sans-serif;font-style:normal;font-weight:normal" x="1034.75" y="750.258">
      <tspan x="1034.75" y="750.258">j = j - 1</tspan>
    </text>
  </g>
  <g>
    <path style="fill: #ffffff" d="M 997.46 238.458 L 1071.87,238.458 L 1086.75,265.458 L 1071.87,292.458 L 997.46,292.458 L 982.579,265.458 L 997.46,238.458z"/>
    <path style="fill: none; fill-opacity:0; stroke-width: 2; stroke: #000000" d="M 997.46 238.458 L 1071.87,238.458 L 1086.75,265.458 L 1071.87,292.458 L 997.46,292.458 L 982.579,265.458 L 997.46,238.458"/>
    <text font-size="12.8" style="fill: #000000;text-anchor:middle;font-family:sans-serif;font-style:normal;font-weight:normal" x="1034.66" y="270.258">
      <tspan x="1034.66" y="270.258">j = tot</tspan>
    </text>
  </g>
  <g>
    <path style="fill: #ffffff" d="M 985.8 824.458 L 1084.16,824.458 C 1097.74,824.458 1108.75,833.413 1108.75,844.458 C 1108.75,855.504 1097.74,864.458 1084.16,864.458 L 985.8,864.458 C 972.22,864.458 961.211,855.504 961.211,844.458 C 961.211,833.413 972.22,824.458 985.8,824.458z"/>
    <path style="fill: none; fill-opacity:0; stroke-width: 2; stroke: #000000" d="M 985.8 824.458 L 1084.16,824.458 C 1097.74,824.458 1108.75,833.413 1108.75,844.458 C 1108.75,855.504 1097.74,864.458 1084.16,864.458 L 985.8,864.458 C 972.22,864.458 961.211,855.504 961.211,844.458 C 961.211,833.413 972.22,824.458 985.8,824.458"/>
    <text font-size="12.8" style="fill: #000000;text-anchor:middle;font-family:sans-serif;font-style:normal;font-weight:normal" x="1034.98" y="849.258">
      <tspan x="1034.98" y="849.258">stop</tspan>
    </text>
  </g>
  <g>
    <line style="fill: none; fill-opacity:0; stroke-width: 2; stroke: #000000" x1="1032.4" y1="55.4584" x2="1034.43" y2="117.728"/>
    <polygon style="fill: #000000" points="1034.68,125.224 1029.35,115.392 1034.43,117.728 1039.35,115.066 "/>
    <polygon style="fill: none; fill-opacity:0; stroke-width: 2; stroke: #000000" points="1034.68,125.224 1029.35,115.392 1034.43,117.728 1039.35,115.066 "/>
  </g>
  <g>
    <line style="fill: none; fill-opacity:0; stroke-width: 2; stroke: #000000" x1="1033.64" y1="173.458" x2="1034.51" y2="228.724"/>
    <polygon style="fill: #000000" points="1034.63,236.223 1029.47,226.303 1034.51,228.724 1039.47,226.145 "/>
    <polygon style="fill: none; fill-opacity:0; stroke-width: 2; stroke: #000000" points="1034.63,236.223 1029.47,226.303 1034.51,228.724 1039.47,226.145 "/>
  </g>
  <g>
    <line style="fill: none; fill-opacity:0; stroke-width: 2; stroke: #000000" x1="1034.13" y1="411.557" x2="1034.63" y2="453.203"/>
    <polygon style="fill: #000000" points="1034.72,460.703 1029.6,450.764 1034.63,453.203 1039.6,450.643 "/>
    <polygon style="fill: none; fill-opacity:0; stroke-width: 2; stroke: #000000" points="1034.72,460.703 1029.6,450.764 1034.63,453.203 1039.6,450.643 "/>
  </g>
  <g>
    <line style="fill: none; fill-opacity:0; stroke-width: 2; stroke: #000000" x1="1034.75" y1="531.977" x2="1035.61" y2="593.723"/>
    <polygon style="fill: #000000" points="1035.72,601.223 1030.58,591.293 1035.61,593.723 1040.58,591.154 "/>
    <polygon style="fill: none; fill-opacity:0; stroke-width: 2; stroke: #000000" points="1035.72,601.223 1030.58,591.293 1035.61,593.723 1040.58,591.154 "/>
  </g>
  <g>
    <line style="fill: none; fill-opacity:0; stroke-width: 2; stroke: #000000" x1="1034.75" y1="652.429" x2="1034.75" y2="716.722"/>
    <polygon style="fill: #000000" points="1034.75,724.222 1029.75,714.222 1034.75,716.722 1039.75,714.222 "/>
    <polygon style="fill: none; fill-opacity:0; stroke-width: 2; stroke: #000000" points="1034.75,724.222 1029.75,714.222 1034.75,716.722 1039.75,714.222 "/>
  </g>
  <text font-size="12.8" style="fill: #000000;text-anchor:start;font-family:sans-serif;font-style:normal;font-weight:normal" x="1040.75" y="556.458">
    <tspan x="1040.75" y="556.458">True</tspan>
  </text>
  <g>
    <polyline style="fill: none; fill-opacity:0; stroke-width: 2; stroke: #000000" points="1001.67,745.458 829.749,745.458 829.749,380.325 988.309,380.325 "/>
    <polygon style="fill: #000000" points="995.809,380.325 985.809,385.325 988.309,380.325 985.809,375.325 "/>
    <polygon style="fill: none; fill-opacity:0; stroke-width: 2; stroke: #000000" points="995.809,380.325 985.809,385.325 988.309,380.325 985.809,375.325 "/>
  </g>
  <g>
    <polyline style="fill: none; fill-opacity:0; stroke-width: 2; stroke: #000000" points="1103.79,497.458 1292.75,497.458 1292.75,844.458 1118.48,844.458 "/>
    <polygon style="fill: #000000" points="1110.98,844.458 1120.98,839.458 1118.48,844.458 1120.98,849.458 "/>
    <polygon style="fill: none; fill-opacity:0; stroke-width: 2; stroke: #000000" points="1110.98,844.458 1120.98,839.458 1118.48,844.458 1120.98,849.458 "/>
  </g>
  <g>
    <ellipse style="fill: #ffffff" cx="1034.13" cy="380.325" rx="36.0846" ry="31.2322"/>
    <ellipse style="fill: none; fill-opacity:0; stroke-width: 2; stroke: #000000" cx="1034.13" cy="380.325" rx="36.0846" ry="31.2322"/>
    <text font-size="12.8" style="fill: #000000;text-anchor:middle;font-family:sans-serif;font-style:normal;font-weight:normal" x="1034.13" y="385.125">
      <tspan x="1034.13" y="385.125">endloop</tspan>
    </text>
  </g>
  <text font-size="12.8" style="fill: #000000;text-anchor:start;font-family:sans-serif;font-style:normal;font-weight:normal" x="1142.75" y="486.458">
    <tspan x="1142.75" y="486.458">False</tspan>
  </text>
  <g>
    <line style="fill: none; fill-opacity:0; stroke-width: 2; stroke: #000000" x1="1034.66" y1="292.458" x2="1034.22" y2="339.357"/>
    <polygon style="fill: #000000" points="1034.15,346.856 1029.25,336.81 1034.22,339.357 1039.24,336.904 "/>
    <polygon style="fill: none; fill-opacity:0; stroke-width: 2; stroke: #000000" points="1034.15,346.856 1029.25,336.81 1034.22,339.357 1039.24,336.904 "/>
  </g>
  <g>
    <ellipse style="fill: #ffffff" cx="64.9661" cy="0.346707" rx="37.5932" ry="18.7966"/>
    <ellipse style="fill: none; fill-opacity:0; stroke-width: 2; stroke: #000000" cx="64.9661" cy="0.346707" rx="37.5932" ry="18.7966"/>
    <text font-size="12.8" style="fill: #000000;text-anchor:middle;font-family:sans-serif;font-style:normal;font-weight:normal" x="64.9661" y="5.14671">
      <tspan x="64.9661" y="5.14671">start</tspan>
    </text>
  </g>
  <g>
    <rect style="fill: #ffffff" x="-433.864" y="205.841" width="216.05" height="246"/>
    <rect style="fill: none; fill-opacity:0; stroke-width: 2; stroke: #000000" x="-433.864" y="205.841" width="216.05" height="246"/>
    <text font-size="12.8" style="fill: #000000;text-anchor:start;font-family:sans-serif;font-style:normal;font-weight:normal" x="-424.864" y="229.641">
      <tspan x="-424.864" y="229.641">             Pseudocode</tspan>
      <tspan x="-424.864" y="245.641">CCL+</tspan>
      <tspan x="-424.864" y="261.641">       ___________________</tspan>
      <tspan x="-424.864" y="277.641">start</tspan>
      <tspan x="-424.864" y="293.641">cnt=0</tspan>
      <tspan x="-424.864" y="309.641">loop(cnt&lt;3)</tspan>
      <tspan x="-424.864" y="325.641">    input('name:', name)</tspan>
      <tspan x="-424.864" y="341.641">    input('wage:', wage)</tspan>
      <tspan x="-424.864" y="357.641">    input('hour:', hour)</tspan>
      <tspan x="-424.864" y="373.641">    pay=wage*hour</tspan>
      <tspan x="-424.864" y="389.641">    print(name,',your pay is:$',pay)</tspan>
      <tspan x="-424.864" y="405.641">    cnt=cnt+1</tspan>
      <tspan x="-424.864" y="421.641">endloop</tspan>
      <tspan x="-424.864" y="437.641">stop</tspan>
    </text>
  </g>
  <g>
    <polygon style="fill: #ffffff" points="63.9049,239.738 137.818,276.694 63.9049,313.651 -10.0083,276.694 "/>
    <polygon style="fill: none; fill-opacity:0; stroke-width: 2; stroke: #000000" points="63.9049,239.738 137.818,276.694 63.9049,313.651 -10.0083,276.694 "/>
    <text font-size="12.8" style="fill: #000000;text-anchor:middle;font-family:sans-serif;font-style:normal;font-weight:normal" x="63.9049" y="281.494">
      <tspan x="63.9049" y="281.494">loop(cnt&lt;3)</tspan>
    </text>
  </g>
  <g>
    <polygon style="fill: #ffffff" points="-2.2275,343.694 144.596,343.694 130.037,383.694 -16.7863,383.694 "/>
    <polygon style="fill: none; fill-opacity:0; stroke-width: 2; stroke: #000000" points="-2.2275,343.694 144.596,343.694 130.037,383.694 -16.7863,383.694 "/>
    <text font-size="12.8" style="fill: #000000;text-anchor:middle;font-family:sans-serif;font-style:normal;font-weight:normal" x="63.9049" y="368.494">
      <tspan x="63.9049" y="368.494">input('name:', name)</tspan>
    </text>
  </g>
  <g>
    <polygon style="fill: #ffffff" points="1.0725,416.694 141.296,416.694 126.737,456.694 -13.4863,456.694 "/>
    <polygon style="fill: none; fill-opacity:0; stroke-width: 2; stroke: #000000" points="1.0725,416.694 141.296,416.694 126.737,456.694 -13.4863,456.694 "/>
    <text font-size="12.8" style="fill: #000000;text-anchor:middle;font-family:sans-serif;font-style:normal;font-weight:normal" x="63.9049" y="441.494">
      <tspan x="63.9049" y="441.494">input('wage:',wage)</tspan>
    </text>
  </g>
  <g>
    <polygon style="fill: #ffffff" points="2.2725,483.694 138.096,483.694 123.537,523.694 -12.2863,523.694 "/>
    <polygon style="fill: none; fill-opacity:0; stroke-width: 2; stroke: #000000" points="2.2725,483.694 138.096,483.694 123.537,523.694 -12.2863,523.694 "/>
    <text font-size="12.8" style="fill: #000000;text-anchor:middle;font-family:sans-serif;font-style:normal;font-weight:normal" x="62.9049" y="508.494">
      <tspan x="62.9049" y="508.494">input('hour:', hour)</tspan>
    </text>
  </g>
  <g>
    <rect style="fill: #ffffff" x="-0.744306" y="550.694" width="119.3" height="38"/>
    <rect style="fill: none; fill-opacity:0; stroke-width: 2; stroke: #000000" x="-0.744306" y="550.694" width="119.3" height="38"/>
    <text font-size="12.8" style="fill: #000000;text-anchor:middle;font-family:sans-serif;font-style:normal;font-weight:normal" x="58.9057" y="574.494">
      <tspan x="58.9057" y="574.494">pay=wage*hour</tspan>
    </text>
  </g>
  <g>
    <rect style="fill: #ffffff" x="-44.6183" y="613.694" width="201.05" height="38"/>
    <rect style="fill: none; fill-opacity:0; stroke-width: 2; stroke: #000000" x="-44.6183" y="613.694" width="201.05" height="38"/>
    <text font-size="12.8" style="fill: #000000;text-anchor:middle;font-family:sans-serif;font-style:normal;font-weight:normal" x="55.9067" y="637.494">
      <tspan x="55.9067" y="637.494">print(name,',Your pay is:$',pay)</tspan>
    </text>
  </g>
  <g>
    <rect style="fill: #ffffff" x="17.7557" y="686.694" width="82.3" height="38"/>
    <rect style="fill: none; fill-opacity:0; stroke-width: 2; stroke: #000000" x="17.7557" y="686.694" width="82.3" height="38"/>
    <text font-size="12.8" style="fill: #000000;text-anchor:middle;font-family:sans-serif;font-style:normal;font-weight:normal" x="58.9057" y="710.494">
      <tspan x="58.9057" y="710.494">cnt=cnt+1</tspan>
    </text>
  </g>
  <g>
    <ellipse style="fill: #ffffff" cx="64.9872" cy="791.348" rx="37.2178" ry="18.6089"/>
    <ellipse style="fill: none; fill-opacity:0; stroke-width: 2; stroke: #000000" cx="64.9872" cy="791.348" rx="37.2178" ry="18.6089"/>
    <text font-size="12.8" style="fill: #000000;text-anchor:middle;font-family:sans-serif;font-style:normal;font-weight:normal" x="64.9872" y="796.148">
      <tspan x="64.9872" y="796.148">stop</tspan>
    </text>
  </g>
  <g>
    <line style="fill: none; fill-opacity:0; stroke-width: 2; stroke: #000000" x1="64.6579" y1="20.1111" x2="64.2956" y2="43.344"/>
    <polygon style="fill: #000000" points="64.1786,50.843 59.3352,40.7663 64.2956,43.344 69.3339,40.9222 "/>
    <polygon style="fill: none; fill-opacity:0; stroke-width: 2; stroke: #000000" points="64.1786,50.843 59.3352,40.7663 64.2956,43.344 69.3339,40.9222 "/>
  </g>
  <g>
    <line style="fill: none; fill-opacity:0; stroke-width: 2; stroke: #000000" x1="64.0263" y1="95.0653" x2="64.3122" y2="123.631"/>
    <polygon style="fill: #000000" points="64.3872,131.131 59.2874,121.181 64.3122,123.631 69.2869,121.081 "/>
    <polygon style="fill: none; fill-opacity:0; stroke-width: 2; stroke: #000000" points="64.3872,131.131 59.2874,121.181 64.3122,123.631 69.2869,121.081 "/>
  </g>
  <g>
    <line style="fill: none; fill-opacity:0; stroke-width: 2; stroke: #000000" x1="63.9049" y1="314.651" x2="63.9049" y2="332.962"/>
    <polygon style="fill: #000000" points="63.9049,340.462 58.9049,330.462 63.9049,332.962 68.9049,330.462 "/>
    <polygon style="fill: none; fill-opacity:0; stroke-width: 2; stroke: #000000" points="63.9049,340.462 58.9049,330.462 63.9049,332.962 68.9049,330.462 "/>
  </g>
  <g>
    <line style="fill: none; fill-opacity:0; stroke-width: 2; stroke: #000000" x1="63.9049" y1="384.697" x2="63.9049" y2="405.954"/>
    <polygon style="fill: #000000" points="63.9049,413.454 58.9049,403.454 63.9049,405.954 68.9049,403.454 "/>
    <polygon style="fill: none; fill-opacity:0; stroke-width: 2; stroke: #000000" points="63.9049,413.454 58.9049,403.454 63.9049,405.954 68.9049,403.454 "/>
  </g>
  <g>
    <line style="fill: none; fill-opacity:0; stroke-width: 2; stroke: #000000" x1="63.5919" y1="457.664" x2="63.3631" y2="472.988"/>
    <polygon style="fill: #000000" points="63.2512,480.488 58.401,470.414 63.3631,472.988 68.3999,470.563 "/>
    <polygon style="fill: none; fill-opacity:0; stroke-width: 2; stroke: #000000" points="63.2512,480.488 58.401,470.414 63.3631,472.988 68.3999,470.563 "/>
  </g>
  <g>
    <line style="fill: none; fill-opacity:0; stroke-width: 2; stroke: #000000" x1="61.6356" y1="524.641" x2="60.7062" y2="539.979"/>
    <polygon style="fill: #000000" points="60.2526,547.465 55.8666,537.181 60.7062,539.979 65.8483,537.786 "/>
    <polygon style="fill: none; fill-opacity:0; stroke-width: 2; stroke: #000000" points="60.2526,547.465 55.8666,537.181 60.7062,539.979 65.8483,537.786 "/>
  </g>
  <g>
    <line style="fill: none; fill-opacity:0; stroke-width: 2; stroke: #000000" x1="57.9535" y1="589.696" x2="57.3218" y2="602.966"/>
    <polygon style="fill: #000000" points="56.9652,610.457 52.4464,600.231 57.3218,602.966 62.4351,600.706 "/>
    <polygon style="fill: none; fill-opacity:0; stroke-width: 2; stroke: #000000" points="56.9652,610.457 52.4464,600.231 57.3218,602.966 62.4351,600.706 "/>
  </g>
  <g>
    <line style="fill: none; fill-opacity:0; stroke-width: 2; stroke: #000000" x1="56.7286" y1="652.699" x2="57.6842" y2="675.96"/>
    <polygon style="fill: #000000" points="57.992,683.454 52.5858,673.668 57.6842,675.96 62.5773,673.257 "/>
    <polygon style="fill: none; fill-opacity:0; stroke-width: 2; stroke: #000000" points="57.992,683.454 52.5858,673.668 57.6842,675.96 62.5773,673.257 "/>
  </g>
  <text font-size="12.8" style="fill: #000000;text-anchor:start;font-family:sans-serif;font-style:normal;font-weight:normal" x="174.334" y="272.102">
    <tspan x="174.334" y="272.102">false</tspan>
  </text>
  <text font-size="12.8" style="fill: #000000;text-anchor:start;font-family:sans-serif;font-style:normal;font-weight:normal" x="73.9057" y="327.694">
    <tspan x="73.9057" y="327.694">true</tspan>
  </text>
  <g>
    <ellipse style="fill: #ffffff" cx="64.4096" cy="166.01" rx="34.7277" ry="32.6431"/>
    <ellipse style="fill: none; fill-opacity:0; stroke-width: 2; stroke: #000000" cx="64.4096" cy="166.01" rx="34.7277" ry="32.6431"/>
    <text font-size="12.8" style="fill: #000000;text-anchor:middle;font-family:sans-serif;font-style:normal;font-weight:normal" x="64.4096" y="170.81">
      <tspan x="64.4096" y="170.81">endloop</tspan>
    </text>
  </g>
  <g>
    <polyline style="fill: none; fill-opacity:0; stroke-width: 2; stroke: #000000" points="17.7557,715.194 -101.833,715.194 -101.833,166.01 19.9458,166.01 "/>
    <polygon style="fill: #000000" points="27.4458,166.01 17.4458,171.01 19.9458,166.01 17.4458,161.01 "/>
    <polygon style="fill: none; fill-opacity:0; stroke-width: 2; stroke: #000000" points="27.4458,166.01 17.4458,171.01 19.9458,166.01 17.4458,161.01 "/>
  </g>
  <g>
    <polyline style="fill: none; fill-opacity:0; stroke-width: 2; stroke: #000000" points="137.818,276.694 242.477,276.694 242.477,791.348 111.941,791.348 "/>
    <polygon style="fill: #000000" points="104.441,791.348 114.441,786.348 111.941,791.348 114.441,796.348 "/>
    <polygon style="fill: none; fill-opacity:0; stroke-width: 2; stroke: #000000" points="104.441,791.348 114.441,786.348 111.941,791.348 114.441,796.348 "/>
  </g>
  <g>
    <path style="fill: #ffffff" d="M 36.0613 54.0763 L 75.7113,54.0763 L 83.6413,74.0763 L 75.7113,94.0763 L 36.0613,94.0763 L 28.1313,74.0763 L 36.0613,54.0763z"/>
    <path style="fill: none; fill-opacity:0; stroke-width: 2; stroke: #000000" d="M 36.0613 54.0763 L 75.7113,54.0763 L 83.6413,74.0763 L 75.7113,94.0763 L 36.0613,94.0763 L 28.1313,74.0763 L 36.0613,54.0763"/>
    <text font-size="12.8" style="fill: #000000;text-anchor:middle;font-family:sans-serif;font-style:normal;font-weight:normal" x="55.8863" y="78.8763">
      <tspan x="55.8863" y="78.8763">cnt=0</tspan>
    </text>
  </g>
  <g>
    <rect style="fill: #ffffff" x="630.617" y="1285.69" width="148.95" height="230"/>
    <rect style="fill: none; fill-opacity:0; stroke-width: 2; stroke: #000000" x="630.617" y="1285.69" width="148.95" height="230"/>
    <text font-size="12.8" style="fill: #000000;text-anchor:start;font-family:sans-serif;font-style:normal;font-weight:normal" x="639.617" y="1309.49">
      <tspan x="639.617" y="1309.49">Pseudocode:</tspan>
      <tspan x="639.617" y="1325.49">HRL+</tspan>
      <tspan x="639.617" y="1341.49">_______________</tspan>
      <tspan x="639.617" y="1357.49"></tspan>
      <tspan x="639.617" y="1373.49">start</tspan>
      <tspan x="639.617" y="1389.49">tot = input('Total #: ')</tspan>
      <tspan x="639.617" y="1405.49">j = 0</tspan>
      <tspan x="639.617" y="1421.49">loop (j&lt;tot)</tspan>
      <tspan x="639.617" y="1437.49">    print('j = ', j)</tspan>
      <tspan x="639.617" y="1453.49">    j = j + 1</tspan>
      <tspan x="639.617" y="1469.49">endloop</tspan>
      <tspan x="639.617" y="1485.49">stop</tspan>
      <tspan x="639.617" y="1501.49"></tspan>
    </text>
  </g>
  <g>
    <path style="fill: #ffffff" d="M 972.509 1132.69 L 1080.98,1132.69 C 1095.95,1132.69 1108.09,1141.64 1108.09,1152.69 C 1108.09,1163.73 1095.95,1172.69 1080.98,1172.69 L 972.509,1172.69 C 957.533,1172.69 945.392,1163.73 945.392,1152.69 C 945.392,1141.64 957.533,1132.69 972.509,1132.69z"/>
    <path style="fill: none; fill-opacity:0; stroke-width: 2; stroke: #000000" d="M 972.509 1132.69 L 1080.98,1132.69 C 1095.95,1132.69 1108.09,1141.64 1108.09,1152.69 C 1108.09,1163.73 1095.95,1172.69 1080.98,1172.69 L 972.509,1172.69 C 957.533,1172.69 945.392,1163.73 945.392,1152.69 C 945.392,1141.64 957.533,1132.69 972.509,1132.69"/>
    <text font-size="12.8" style="fill: #000000;text-anchor:middle;font-family:sans-serif;font-style:normal;font-weight:normal" x="1026.74" y="1157.49">
      <tspan x="1026.74" y="1157.49">start</tspan>
    </text>
  </g>
  <g>
    <polygon style="fill: #ffffff" points="918.985,1246.69 1152.09,1246.69 1137.53,1286.69 904.426,1286.69 "/>
    <polygon style="fill: none; fill-opacity:0; stroke-width: 2; stroke: #000000" points="918.985,1246.69 1152.09,1246.69 1137.53,1286.69 904.426,1286.69 "/>
    <text font-size="12.8" style="fill: #000000;text-anchor:middle;font-family:sans-serif;font-style:normal;font-weight:normal" x="1028.26" y="1271.49">
      <tspan x="1028.26" y="1271.49">tot = input('Total #: ')</tspan>
    </text>
  </g>
  <g>
    <polygon style="fill: #ffffff" points="1029.09,1580.17 1098.13,1614.69 1029.09,1649.21 960.054,1614.69 "/>
    <polygon style="fill: none; fill-opacity:0; stroke-width: 2; stroke: #000000" points="1029.09,1580.17 1098.13,1614.69 1029.09,1649.21 960.054,1614.69 "/>
    <text font-size="12.8" style="fill: #000000;text-anchor:middle;font-family:sans-serif;font-style:normal;font-weight:normal" x="1029.09" y="1619.49">
      <tspan x="1029.09" y="1619.49">loop (j&lt;0)</tspan>
    </text>
  </g>
  <g>
    <polygon style="fill: #ffffff" points="985.792,1723.69 1088.77,1723.69 1072.39,1768.69 969.414,1768.69 "/>
    <polygon style="fill: none; fill-opacity:0; stroke-width: 2; stroke: #000000" points="985.792,1723.69 1088.77,1723.69 1072.39,1768.69 969.414,1768.69 "/>
    <text font-size="12.8" style="fill: #000000;text-anchor:middle;font-family:sans-serif;font-style:normal;font-weight:normal" x="1029.09" y="1750.99">
      <tspan x="1029.09" y="1750.99">print('j = ', j)</tspan>
    </text>
  </g>
  <g>
    <rect style="fill: #ffffff" x="993.69" y="1843.69" width="70.8" height="38"/>
    <rect style="fill: none; fill-opacity:0; stroke-width: 2; stroke: #000000" x="993.69" y="1843.69" width="70.8" height="38"/>
    <text font-size="12.8" style="fill: #000000;text-anchor:middle;font-family:sans-serif;font-style:normal;font-weight:normal" x="1029.09" y="1867.49">
      <tspan x="1029.09" y="1867.49">j = j + 1</tspan>
    </text>
  </g>
  <g>
    <path style="fill: #ffffff" d="M 991.803 1355.69 L 1066.21,1355.69 L 1081.09,1382.69 L 1066.21,1409.69 L 991.803,1409.69 L 976.922,1382.69 L 991.803,1355.69z"/>
    <path style="fill: none; fill-opacity:0; stroke-width: 2; stroke: #000000" d="M 991.803 1355.69 L 1066.21,1355.69 L 1081.09,1382.69 L 1066.21,1409.69 L 991.803,1409.69 L 976.922,1382.69 L 991.803,1355.69"/>
    <text font-size="12.8" style="fill: #000000;text-anchor:middle;font-family:sans-serif;font-style:normal;font-weight:normal" x="1029.01" y="1387.49">
      <tspan x="1029.01" y="1387.49">j = 0</tspan>
    </text>
  </g>
  <g>
    <path style="fill: #ffffff" d="M 980.144 1941.69 L 1078.5,1941.69 C 1092.08,1941.69 1103.09,1950.64 1103.09,1961.69 C 1103.09,1972.73 1092.08,1981.69 1078.5,1981.69 L 980.144,1981.69 C 966.563,1981.69 955.554,1972.73 955.554,1961.69 C 955.554,1950.64 966.563,1941.69 980.144,1941.69z"/>
    <path style="fill: none; fill-opacity:0; stroke-width: 2; stroke: #000000" d="M 980.144 1941.69 L 1078.5,1941.69 C 1092.08,1941.69 1103.09,1950.64 1103.09,1961.69 C 1103.09,1972.73 1092.08,1981.69 1078.5,1981.69 L 980.144,1981.69 C 966.563,1981.69 955.554,1972.73 955.554,1961.69 C 955.554,1950.64 966.563,1941.69 980.144,1941.69"/>
    <text font-size="12.8" style="fill: #000000;text-anchor:middle;font-family:sans-serif;font-style:normal;font-weight:normal" x="1029.32" y="1966.49">
      <tspan x="1029.32" y="1966.49">stop</tspan>
    </text>
  </g>
  <g>
    <line style="fill: none; fill-opacity:0; stroke-width: 2; stroke: #000000" x1="1026.74" y1="1172.69" x2="1028.77" y2="1234.96"/>
    <polygon style="fill: #000000" points="1029.02,1242.45 1023.7,1232.62 1028.77,1234.96 1033.69,1232.29 "/>
    <polygon style="fill: none; fill-opacity:0; stroke-width: 2; stroke: #000000" points="1029.02,1242.45 1023.7,1232.62 1028.77,1234.96 1033.69,1232.29 "/>
  </g>
  <g>
    <line style="fill: none; fill-opacity:0; stroke-width: 2; stroke: #000000" x1="1027.98" y1="1290.69" x2="1028.85" y2="1345.95"/>
    <polygon style="fill: #000000" points="1028.97,1353.45 1023.81,1343.53 1028.85,1345.95 1033.81,1343.37 "/>
    <polygon style="fill: none; fill-opacity:0; stroke-width: 2; stroke: #000000" points="1028.97,1353.45 1023.81,1343.53 1028.85,1345.95 1033.81,1343.37 "/>
  </g>
  <g>
    <line style="fill: none; fill-opacity:0; stroke-width: 2; stroke: #000000" x1="1028.47" y1="1528.79" x2="1028.97" y2="1570.43"/>
    <polygon style="fill: #000000" points="1029.07,1577.93 1023.95,1567.99 1028.97,1570.43 1033.94,1567.87 "/>
    <polygon style="fill: none; fill-opacity:0; stroke-width: 2; stroke: #000000" points="1029.07,1577.93 1023.95,1567.99 1028.97,1570.43 1033.94,1567.87 "/>
  </g>
  <g>
    <line style="fill: none; fill-opacity:0; stroke-width: 2; stroke: #000000" x1="1029.09" y1="1649.21" x2="1029.96" y2="1710.95"/>
    <polygon style="fill: #000000" points="1030.06,1718.45 1024.92,1708.52 1029.96,1710.95 1034.92,1708.38 "/>
    <polygon style="fill: none; fill-opacity:0; stroke-width: 2; stroke: #000000" points="1030.06,1718.45 1024.92,1708.52 1029.96,1710.95 1034.92,1708.38 "/>
  </g>
  <g>
    <line style="fill: none; fill-opacity:0; stroke-width: 2; stroke: #000000" x1="1029.09" y1="1769.66" x2="1029.09" y2="1833.95"/>
    <polygon style="fill: #000000" points="1029.09,1841.45 1024.09,1831.45 1029.09,1833.95 1034.09,1831.45 "/>
    <polygon style="fill: none; fill-opacity:0; stroke-width: 2; stroke: #000000" points="1029.09,1841.45 1024.09,1831.45 1029.09,1833.95 1034.09,1831.45 "/>
  </g>
  <text font-size="12.8" style="fill: #000000;text-anchor:start;font-family:sans-serif;font-style:normal;font-weight:normal" x="1035.09" y="1673.69">
    <tspan x="1035.09" y="1673.69">True</tspan>
  </text>
  <g>
    <polyline style="fill: none; fill-opacity:0; stroke-width: 2; stroke: #000000" points="993.69,1862.69 824.092,1862.69 824.092,1497.55 982.652,1497.55 "/>
    <polygon style="fill: #000000" points="990.152,1497.55 980.152,1502.55 982.652,1497.55 980.152,1492.55 "/>
    <polygon style="fill: none; fill-opacity:0; stroke-width: 2; stroke: #000000" points="990.152,1497.55 980.152,1502.55 982.652,1497.55 980.152,1492.55 "/>
  </g>
  <g>
    <polyline style="fill: none; fill-opacity:0; stroke-width: 2; stroke: #000000" points="1098.13,1614.69 1287.09,1614.69 1287.09,1961.69 1112.83,1961.69 "/>
    <polygon style="fill: #000000" points="1105.33,1961.69 1115.33,1956.69 1112.83,1961.69 1115.33,1966.69 "/>
    <polygon style="fill: none; fill-opacity:0; stroke-width: 2; stroke: #000000" points="1105.33,1961.69 1115.33,1956.69 1112.83,1961.69 1115.33,1966.69 "/>
  </g>
  <g>
    <ellipse style="fill: #ffffff" cx="1028.47" cy="1497.55" rx="36.0846" ry="31.2322"/>
    <ellipse style="fill: none; fill-opacity:0; stroke-width: 2; stroke: #000000" cx="1028.47" cy="1497.55" rx="36.0846" ry="31.2322"/>
    <text font-size="12.8" style="fill: #000000;text-anchor:middle;font-family:sans-serif;font-style:normal;font-weight:normal" x="1028.47" y="1502.35">
      <tspan x="1028.47" y="1502.35">endloop</tspan>
    </text>
  </g>
  <text font-size="12.8" style="fill: #000000;text-anchor:start;font-family:sans-serif;font-style:normal;font-weight:normal" x="1137.09" y="1603.69">
    <tspan x="1137.09" y="1603.69">False</tspan>
  </text>
  <g>
    <line style="fill: none; fill-opacity:0; stroke-width: 2; stroke: #000000" x1="1029.01" y1="1409.69" x2="1028.56" y2="1456.59"/>
    <polygon style="fill: #000000" points="1028.49,1464.09 1023.59,1454.04 1028.56,1456.59 1033.59,1454.13 "/>
    <polygon style="fill: none; fill-opacity:0; stroke-width: 2; stroke: #000000" points="1028.49,1464.09 1023.59,1454.04 1028.56,1456.59 1033.59,1454.13 "/>
  </g>
  <g>
    <rect style="fill: #ffffff" x="-73.24" y="2303.22" width="295.35" height="182"/>
    <rect style="fill: none; fill-opacity:0; stroke-width: 2; stroke: #000000" x="-73.24" y="2303.22" width="295.35" height="182"/>
    <text font-size="12.8" style="fill: #000000;text-anchor:start;font-family:sans-serif;font-style:normal;font-weight:normal" x="-64.24" y="2327.02">
      <tspan x="-64.24" y="2327.02">                         Pseudocode</tspan>
      <tspan x="-64.24" y="2343.02">TRL</tspan>
      <tspan x="-64.24" y="2359.02">_______________________________________</tspan>
      <tspan x="-64.24" y="2375.02">Start</tspan>
      <tspan x="-64.24" y="2391.02">grade=input('grade 0-100, negative to quit:')</tspan>
      <tspan x="-64.24" y="2407.02">loop (grade&gt;=0)</tspan>
      <tspan x="-64.24" y="2423.02">    print('grade=', grade)</tspan>
      <tspan x="-64.24" y="2439.02">    grade=input('grade 0-100, negative to quit:')</tspan>
      <tspan x="-64.24" y="2455.02">endloop</tspan>
      <tspan x="-64.24" y="2471.02">stop</tspan>
    </text>
  </g>
  <g>
    <ellipse style="fill: #ffffff" cx="530.737" cy="2075.91" rx="36.7966" ry="20.0909"/>
    <ellipse style="fill: none; fill-opacity:0; stroke-width: 2; stroke: #000000" cx="530.737" cy="2075.91" rx="36.7966" ry="20.0909"/>
    <text font-size="12.8" style="fill: #000000;text-anchor:middle;font-family:sans-serif;font-style:normal;font-weight:normal" x="530.737" y="2080.71">
      <tspan x="530.737" y="2080.71">start</tspan>
    </text>
  </g>
  <g>
    <polygon style="fill: #ffffff" points="537.266,2392.62 626.87,2435.31 537.266,2478 447.663,2435.31 "/>
    <polygon style="fill: none; fill-opacity:0; stroke-width: 2; stroke: #000000" points="537.266,2392.62 626.87,2435.31 537.266,2478 447.663,2435.31 "/>
    <text font-size="12.8" style="fill: #000000;text-anchor:middle;font-family:sans-serif;font-style:normal;font-weight:normal" x="537.266" y="2440.11">
      <tspan x="537.266" y="2440.11">loop (grade&gt;=0)</tspan>
    </text>
  </g>
  <g>
    <rect style="fill: #ffffff" x="466.136" y="2547.22" width="141" height="38"/>
    <rect style="fill: none; fill-opacity:0; stroke-width: 2; stroke: #000000" x="466.136" y="2547.22" width="141" height="38"/>
    <text font-size="12.8" style="fill: #000000;text-anchor:middle;font-family:sans-serif;font-style:normal;font-weight:normal" x="536.636" y="2571.02">
      <tspan x="536.636" y="2571.02">print('grade=',grade)</tspan>
    </text>
  </g>
  <g>
    <ellipse style="fill: #ffffff" cx="531.472" cy="2307.61" rx="35.5052" ry="30.4618"/>
    <ellipse style="fill: none; fill-opacity:0; stroke-width: 2; stroke: #000000" cx="531.472" cy="2307.61" rx="35.5052" ry="30.4618"/>
    <text font-size="12.8" style="fill: #000000;text-anchor:middle;font-family:sans-serif;font-style:normal;font-weight:normal" x="531.472" y="2312.41">
      <tspan x="531.472" y="2312.41">endloop</tspan>
    </text>
  </g>
  <g>
    <line style="fill: none; fill-opacity:0; stroke-width: 2; stroke: #000000" x1="530.737" y1="2096" x2="531.304" y2="2148.6"/>
    <polygon style="fill: #000000" points="531.385,2156.1 526.277,2146.15 531.304,2148.6 536.276,2146.05 "/>
    <polygon style="fill: none; fill-opacity:0; stroke-width: 2; stroke: #000000" points="531.385,2156.1 526.277,2146.15 531.304,2148.6 536.276,2146.05 "/>
  </g>
  <g>
    <line style="fill: none; fill-opacity:0; stroke-width: 2; stroke: #000000" x1="531.6" y1="2200.16" x2="531.488" y2="2267.41"/>
    <polygon style="fill: #000000" points="531.476,2274.91 526.492,2264.9 531.488,2267.41 536.492,2264.92 "/>
    <polygon style="fill: none; fill-opacity:0; stroke-width: 2; stroke: #000000" points="531.476,2274.91 526.492,2264.9 531.488,2267.41 536.492,2264.92 "/>
  </g>
  <g>
    <line style="fill: none; fill-opacity:0; stroke-width: 2; stroke: #000000" x1="537.266" y1="2478" x2="536.848" y2="2536.49"/>
    <polygon style="fill: #000000" points="536.795,2543.99 531.866,2533.95 536.848,2536.49 541.866,2534.02 "/>
    <polygon style="fill: none; fill-opacity:0; stroke-width: 2; stroke: #000000" points="536.795,2543.99 531.866,2533.95 536.848,2536.49 541.866,2534.02 "/>
  </g>
  <g>
    <line style="fill: none; fill-opacity:0; stroke-width: 2; stroke: #000000" x1="536.636" y1="2585.22" x2="537.952" y2="2622.71"/>
    <polygon style="fill: #000000" points="538.215,2630.2 532.868,2620.38 537.952,2622.71 542.861,2620.03 "/>
    <polygon style="fill: none; fill-opacity:0; stroke-width: 2; stroke: #000000" points="538.215,2630.2 532.868,2620.38 537.952,2622.71 542.861,2620.03 "/>
  </g>
  <text font-size="12.8" style="fill: #000000;text-anchor:start;font-family:sans-serif;font-style:normal;font-weight:normal" x="654.493" y="2427.69">
    <tspan x="654.493" y="2427.69">false</tspan>
  </text>
  <text font-size="12.8" style="fill: #000000;text-anchor:start;font-family:sans-serif;font-style:normal;font-weight:normal" x="540.636" y="2523.22">
    <tspan x="540.636" y="2523.22">true</tspan>
  </text>
  <g>
    <polygon style="fill: #ffffff" points="397.203,2159.34 680.626,2159.34 666.068,2199.34 382.644,2199.34 "/>
    <polygon style="fill: none; fill-opacity:0; stroke-width: 2; stroke: #000000" points="397.203,2159.34 680.626,2159.34 666.068,2199.34 382.644,2199.34 "/>
    <text font-size="12.8" style="fill: #000000;text-anchor:middle;font-family:sans-serif;font-style:normal;font-weight:normal" x="531.635" y="2184.14">
      <tspan x="531.635" y="2184.14">grade=input('grade 0-100, negative to quit:')</tspan>
    </text>
  </g>
  <g>
    <polygon style="fill: #ffffff" points="404.595,2633.32 688.018,2633.32 673.46,2673.32 390.036,2673.32 "/>
    <polygon style="fill: none; fill-opacity:0; stroke-width: 2; stroke: #000000" points="404.595,2633.32 688.018,2633.32 673.46,2673.32 390.036,2673.32 "/>
    <text font-size="12.8" style="fill: #000000;text-anchor:middle;font-family:sans-serif;font-style:normal;font-weight:normal" x="539.027" y="2658.12">
      <tspan x="539.027" y="2658.12">grade=input('grade 0-100, negative to quit:')</tspan>
    </text>
  </g>
  <g>
    <ellipse style="fill: #ffffff" cx="533.278" cy="2765.98" rx="37.2178" ry="18.6089"/>
    <ellipse style="fill: none; fill-opacity:0; stroke-width: 2; stroke: #000000" cx="533.278" cy="2765.98" rx="37.2178" ry="18.6089"/>
    <text font-size="12.8" style="fill: #000000;text-anchor:middle;font-family:sans-serif;font-style:normal;font-weight:normal" x="533.278" y="2770.78">
      <tspan x="533.278" y="2770.78">stop</tspan>
    </text>
  </g>
  <g>
    <polyline style="fill: none; fill-opacity:0; stroke-width: 2; stroke: #000000" points="397.315,2653.32 267.36,2653.32 267.36,2307.61 486.231,2307.61 "/>
    <polygon style="fill: #000000" points="493.731,2307.61 483.731,2312.61 486.231,2307.61 483.731,2302.61 "/>
    <polygon style="fill: none; fill-opacity:0; stroke-width: 2; stroke: #000000" points="493.731,2307.61 483.731,2312.61 486.231,2307.61 483.731,2302.61 "/>
  </g>
  <g>
    <line style="fill: none; fill-opacity:0; stroke-width: 2; stroke: #000000" x1="531.472" y1="2338.07" x2="536.238" y2="2382.94"/>
    <polygon style="fill: #000000" points="537.03,2390.4 531.002,2380.99 536.238,2382.94 540.946,2379.93 "/>
    <polygon style="fill: none; fill-opacity:0; stroke-width: 2; stroke: #000000" points="537.03,2390.4 531.002,2380.99 536.238,2382.94 540.946,2379.93 "/>
  </g>
  <g>
    <polyline style="fill: none; fill-opacity:0; stroke-width: 2; stroke: #000000" points="626.87,2435.31 808.371,2435.31 808.371,2765.98 580.232,2765.98 "/>
    <polygon style="fill: #000000" points="572.732,2765.98 582.732,2760.98 580.232,2765.98 582.732,2770.98 "/>
    <polygon style="fill: none; fill-opacity:0; stroke-width: 2; stroke: #000000" points="572.732,2765.98 582.732,2760.98 580.232,2765.98 582.732,2770.98 "/>
  </g>
  <g>
    <line style="fill: none; fill-opacity:0; stroke-width: 2; stroke: #000000" x1="64.4096" y1="198.653" x2="64.0245" y2="230.002"/>
    <polygon style="fill: #000000" points="63.9324,237.502 59.0556,227.441 64.0245,230.002 69.0548,227.564 "/>
    <polygon style="fill: none; fill-opacity:0; stroke-width: 2; stroke: #000000" points="63.9324,237.502 59.0556,227.441 64.0245,230.002 69.0548,227.564 "/>
  </g>
</svg>
