<?xml version="1.0" encoding="UTF-8" standalone="no"?>
<!DOCTYPE svg PUBLIC "-//W3C//DTD SVG 1.0//EN" "http://www.w3.org/TR/2001/PR-SVG-20010719/DTD/svg10.dtd">
<svg width="27cm" height="32cm" viewBox="295 60 523 639" xmlns="http://www.w3.org/2000/svg" xmlns:xlink="http://www.w3.org/1999/xlink">
  <g>
    <rect style="fill: #ffffff" x="349.85" y="158" width="102.3" height="38"/>
    <rect style="fill: none; fill-opacity:0; stroke-width: 2; stroke: #000000" x="349.85" y="158" width="102.3" height="38"/>
    <text font-size="12.7998" style="fill: #000000;text-anchor:middle;font-family:sans-serif;font-style:normal;font-weight:normal" x="401" y="181.8">
      <tspan x="401" y="181.8">name = 'Alice'</tspan>
    </text>
  </g>
  <g>
    <rect style="fill: #ffffff" x="354.725" y="261" width="92.55" height="38"/>
    <rect style="fill: none; fill-opacity:0; stroke-width: 2; stroke: #000000" x="354.725" y="261" width="92.55" height="38"/>
    <text font-size="12.7998" style="fill: #000000;text-anchor:middle;font-family:sans-serif;font-style:normal;font-weight:normal" x="401" y="284.8">
      <tspan x="401" y="284.8">grade1 = 90</tspan>
    </text>
  </g>
  <g>
    <rect style="fill: #ffffff" x="353.725" y="361" width="92.55" height="38"/>
    <rect style="fill: none; fill-opacity:0; stroke-width: 2; stroke: #000000" x="353.725" y="361" width="92.55" height="38"/>
    <text font-size="12.7998" style="fill: #000000;text-anchor:middle;font-family:sans-serif;font-style:normal;font-weight:normal" x="400" y="384.8">
      <tspan x="400" y="384.8">grade1 = 80</tspan>
    </text>
  </g>
  <g>
    <rect style="fill: #ffffff" x="296.1" y="449" width="209.8" height="38"/>
    <rect style="fill: none; fill-opacity:0; stroke-width: 2; stroke: #000000" x="296.1" y="449" width="209.8" height="38"/>
    <text font-size="12.7998" style="fill: #000000;text-anchor:middle;font-family:sans-serif;font-style:normal;font-weight:normal" x="401" y="472.8">
      <tspan x="401" y="472.8">average = (grade1 + grade2) / 2</tspan>
    </text>
  </g>
  <g>
    <polygon style="fill: #ffffff" points="328.293,560 472.266,560 457.707,600 313.734,600 "/>
    <polygon style="fill: none; fill-opacity:0; stroke-width: 2; stroke: #000000" points="328.293,560 472.266,560 457.707,600 313.734,600 "/>
    <text font-size="12.7998" style="fill: #000000;text-anchor:middle;font-family:sans-serif;font-style:normal;font-weight:normal" x="393" y="584.8">
      <tspan x="393" y="584.8">print(name,average)</tspan>
    </text>
  </g>
  <g>
    <path style="fill: #ffffff" d="M 376.552 662 L 416.91,662 C 422.483,662 427,670.059 427,680 C 427,689.941 422.483,698 416.91,698 L 376.552,698 C 370.98,698 366.462,689.941 366.462,680 C 366.462,670.059 370.98,662 376.552,662z"/>
    <path style="fill: none; fill-opacity:0; stroke-width: 2; stroke: #000000" d="M 376.552 662 L 416.91,662 C 422.483,662 427,670.059 427,680 C 427,689.941 422.483,698 416.91,698 L 376.552,698 C 370.98,698 366.462,689.941 366.462,680 C 366.462,670.059 370.98,662 376.552,662"/>
    <text font-size="12.7998" style="fill: #000000;text-anchor:middle;font-family:sans-serif;font-style:normal;font-weight:normal" x="396.731" y="685">
      <tspan x="396.731" y="685">stop</tspan>
    </text>
  </g>
  <g>
    <path style="fill: #ffffff" d="M 385.2 61 L 416.8,61 C 421.163,61 424.7,69.9543 424.7,81 C 424.7,92.0457 421.163,101 416.8,101 L 385.2,101 C 380.837,101 377.3,92.0457 377.3,81 C 377.3,69.9543 380.837,61 385.2,61z"/>
    <path style="fill: none; fill-opacity:0; stroke-width: 2; stroke: #000000" d="M 385.2 61 L 416.8,61 C 421.163,61 424.7,69.9543 424.7,81 C 424.7,92.0457 421.163,101 416.8,101 L 385.2,101 C 380.837,101 377.3,92.0457 377.3,81 C 377.3,69.9543 380.837,61 385.2,61"/>
    <text font-size="12.7998" style="fill: #000000;text-anchor:middle;font-family:sans-serif;font-style:normal;font-weight:normal" x="401" y="86">
      <tspan x="401" y="86">start</tspan>
    </text>
  </g>
  <g>
    <line style="fill: none; fill-opacity:0; stroke-width: 2; stroke: #000000" x1="401" y1="101" x2="401" y2="147.281"/>
    <polygon style="fill: #000000" points="401,154.781 396,144.781 401,147.281 406,144.781 "/>
    <polygon style="fill: none; fill-opacity:0; stroke-width: 2; stroke: #000000" points="401,154.781 396,144.781 401,147.281 406,144.781 "/>
  </g>
  <g>
    <line style="fill: none; fill-opacity:0; stroke-width: 2; stroke: #000000" x1="401" y1="196" x2="401" y2="251.264"/>
    <polygon style="fill: #000000" points="401,258.764 396,248.764 401,251.264 406,248.764 "/>
    <polygon style="fill: none; fill-opacity:0; stroke-width: 2; stroke: #000000" points="401,258.764 396,248.764 401,251.264 406,248.764 "/>
  </g>
  <g>
    <line style="fill: none; fill-opacity:0; stroke-width: 2; stroke: #000000" x1="401" y1="299" x2="400.157" y2="351.265"/>
    <polygon style="fill: #000000" points="400.036,358.764 395.198,348.685 400.157,351.265 405.197,348.846 "/>
    <polygon style="fill: none; fill-opacity:0; stroke-width: 2; stroke: #000000" points="400.036,358.764 395.198,348.685 400.157,351.265 405.197,348.846 "/>
  </g>
  <g>
    <line style="fill: none; fill-opacity:0; stroke-width: 2; stroke: #000000" x1="400.29" y1="399.979" x2="400.859" y2="439.265"/>
    <polygon style="fill: #000000" points="400.968,446.764 395.823,436.838 400.859,439.265 405.822,436.693 "/>
    <polygon style="fill: none; fill-opacity:0; stroke-width: 2; stroke: #000000" points="400.968,446.764 395.823,436.838 400.859,439.265 405.822,436.693 "/>
  </g>
  <g>
    <line style="fill: none; fill-opacity:0; stroke-width: 2; stroke: #000000" x1="401" y1="487" x2="400.376" y2="550.264"/>
    <polygon style="fill: #000000" points="400.301,557.764 395.4,547.715 400.376,550.264 405.4,547.814 "/>
    <polygon style="fill: none; fill-opacity:0; stroke-width: 2; stroke: #000000" points="400.301,557.764 395.4,547.715 400.376,550.264 405.4,547.814 "/>
  </g>
  <g>
    <line style="fill: none; fill-opacity:0; stroke-width: 2; stroke: #000000" x1="397" y1="602" x2="396.775" y2="652.264"/>
    <polygon style="fill: #000000" points="396.741,659.764 391.786,649.742 396.775,652.264 401.786,649.786 "/>
    <polygon style="fill: none; fill-opacity:0; stroke-width: 2; stroke: #000000" points="396.741,659.764 391.786,649.742 396.775,652.264 401.786,649.786 "/>
  </g>
  <g>
    <rect style="fill: #ffffff" x="623.1" y="220" width="193.8" height="198"/>
    <rect style="fill: none; fill-opacity:0; stroke-width: 2; stroke: #000000" x="623.1" y="220" width="193.8" height="198"/>
    <text font-size="12.7998" style="fill: #000000;text-anchor:middle;font-family:sans-serif;font-style:normal;font-weight:normal" x="720" y="243.8">
      <tspan x="720" y="243.8">Pseudocode:</tspan>
      <tspan x="720" y="259.8">_________________</tspan>
      <tspan x="720" y="275.8"></tspan>
      <tspan x="720" y="291.8">start</tspan>
      <tspan x="720" y="307.8">name = 'Alice'</tspan>
      <tspan x="720" y="323.8">grade1 = 90</tspan>
      <tspan x="720" y="339.8">grade2 = 80</tspan>
      <tspan x="720" y="355.8">average = (grade1+grade2)/2</tspan>
      <tspan x="720" y="371.8">print(name,average)</tspan>
      <tspan x="720" y="387.8">stop</tspan>
      <tspan x="720" y="403.8"></tspan>
    </text>
  </g>
</svg>
