<?xml version="1.0" encoding="UTF-8" standalone="no"?>
<!DOCTYPE svg PUBLIC "-//W3C//DTD SVG 1.0//EN" "http://www.w3.org/TR/2001/PR-SVG-20010719/DTD/svg10.dtd">
<svg width="61cm" height="27cm" viewBox="81 -108 1210 529" xmlns="http://www.w3.org/2000/svg" xmlns:xlink="http://www.w3.org/1999/xlink">
  <g>
    <rect style="fill: #ffffff" x="514" y="-107" width="118.35" height="28"/>
    <rect style="fill: none; fill-opacity:0; stroke-width: 2; stroke: #000000" x="514" y="-107" width="118.35" height="28"/>
    <text font-size="16" style="fill: #000000;text-anchor:middle;font-family:sans-serif;font-style:normal;font-weight:700" x="573.175" y="-87">UML Diagram</text>
  </g>
  <g>
    <rect style="fill: #ffffff" x="216" y="-34" width="85.8" height="28"/>
    <rect style="fill: none; fill-opacity:0; stroke-width: 2; stroke: #000000" x="216" y="-34" width="85.8" height="28"/>
    <text font-size="16" style="fill: #000000;text-anchor:middle;font-family:sans-serif;font-style:normal;font-weight:700" x="258.9" y="-14">Structure</text>
  </g>
  <g>
    <rect style="fill: #ffffff" x="765.002" y="-33" width="81.3" height="28"/>
    <rect style="fill: none; fill-opacity:0; stroke-width: 2; stroke: #000000" x="765.002" y="-33" width="81.3" height="28"/>
    <text font-size="16" style="fill: #000000;text-anchor:middle;font-family:sans-serif;font-style:normal;font-weight:700" x="805.652" y="-13">Behavior</text>
  </g>
  <g>
    <rect style="fill: #ffffff" x="93.002" y="66" width="51.65" height="28"/>
    <rect style="fill: none; fill-opacity:0; stroke-width: 2; stroke: #000000" x="93.002" y="66" width="51.65" height="28"/>
    <text font-size="16" style="fill: #000000;text-anchor:middle;font-family:sans-serif;font-style:normal;font-weight:700" x="118.827" y="86">Class</text>
  </g>
  <g>
    <rect style="fill: #ffffff" x="388.002" y="66" width="77.35" height="28"/>
    <rect style="fill: none; fill-opacity:0; stroke-width: 2; stroke: #000000" x="388.002" y="66" width="77.35" height="28"/>
    <text font-size="16" style="fill: #000000;text-anchor:middle;font-family:sans-serif;font-style:normal;font-weight:700" x="426.677" y="86">Package</text>
  </g>
  <g>
    <rect style="fill: #ffffff" x="93.002" y="155" width="62.8" height="28"/>
    <rect style="fill: none; fill-opacity:0; stroke-width: 2; stroke: #000000" x="93.002" y="155" width="62.8" height="28"/>
    <text font-size="16" style="fill: #000000;text-anchor:middle;font-family:sans-serif;font-style:normal;font-weight:700" x="124.402" y="175">Object</text>
  </g>
  <g>
    <rect style="fill: #ffffff" x="350.002" y="155" width="175.55" height="28"/>
    <rect style="fill: none; fill-opacity:0; stroke-width: 2; stroke: #000000" x="350.002" y="155" width="175.55" height="28"/>
    <text font-size="16" style="fill: #000000;text-anchor:middle;font-family:sans-serif;font-style:normal;font-weight:700" x="437.777" y="175">Composite Structure</text>
  </g>
  <g>
    <rect style="fill: #ffffff" x="395.002" y="303" width="102.45" height="28"/>
    <rect style="fill: none; fill-opacity:0; stroke-width: 2; stroke: #000000" x="395.002" y="303" width="102.45" height="28"/>
    <text font-size="16" style="fill: #000000;text-anchor:middle;font-family:sans-serif;font-style:normal;font-weight:700" x="446.227" y="323">Component</text>
  </g>
  <g>
    <rect style="fill: #ffffff" x="405.002" y="375" width="107.25" height="28"/>
    <rect style="fill: none; fill-opacity:0; stroke-width: 2; stroke: #000000" x="405.002" y="375" width="107.25" height="28"/>
    <text font-size="16" style="fill: #000000;text-anchor:middle;font-family:sans-serif;font-style:normal;font-weight:700" x="458.627" y="395">Deployment</text>
  </g>
  <g>
    <rect style="fill: #ffffff" x="82.002" y="375" width="62.65" height="28"/>
    <rect style="fill: none; fill-opacity:0; stroke-width: 2; stroke: #000000" x="82.002" y="375" width="62.65" height="28"/>
    <text font-size="16" style="fill: #000000;text-anchor:middle;font-family:sans-serif;font-style:normal;font-weight:700" x="113.327" y="395">Profile</text>
  </g>
  <g>
    <polyline style="fill: none; fill-opacity:0; stroke-width: 2; stroke: #000000" points="573.175,-60.7639 573.175,-18.75 301.8,-18.75 301.8,-20 "/>
    <polygon style="fill: #ffffff" points="581.175,-60.7639 573.175,-76.7639 565.175,-60.7639 "/>
    <polygon style="fill: none; fill-opacity:0; stroke-width: 2; stroke: #000000" points="581.175,-60.7639 573.175,-76.7639 565.175,-60.7639 "/>
  </g>
  <g>
    <polyline style="fill: none; fill-opacity:0; stroke-width: 2; stroke: #000000" points="573.175,-60.7639 573.175,-19 765.002,-19 "/>
    <polygon style="fill: #ffffff" points="581.175,-60.7639 573.175,-76.7639 565.175,-60.7639 "/>
    <polygon style="fill: none; fill-opacity:0; stroke-width: 2; stroke: #000000" points="581.175,-60.7639 573.175,-76.7639 565.175,-60.7639 "/>
  </g>
  <g>
    <polyline style="fill: none; fill-opacity:0; stroke-width: 2; stroke: #000000" points="258.9,12.2361 258.9,389 144.652,389 "/>
    <polygon style="fill: #ffffff" points="266.9,12.2361 258.9,-3.76393 250.9,12.2361 "/>
    <polygon style="fill: none; fill-opacity:0; stroke-width: 2; stroke: #000000" points="266.9,12.2361 258.9,-3.76393 250.9,12.2361 "/>
  </g>
  <g>
    <polyline style="fill: none; fill-opacity:0; stroke-width: 2; stroke: #000000" points="258.9,12.2361 258.9,389 405.002,389 "/>
    <polygon style="fill: #ffffff" points="266.9,12.2361 258.9,-3.76393 250.9,12.2361 "/>
    <polygon style="fill: none; fill-opacity:0; stroke-width: 2; stroke: #000000" points="266.9,12.2361 258.9,-3.76393 250.9,12.2361 "/>
  </g>
  <g>
    <polyline style="fill: none; fill-opacity:0; stroke-width: 2; stroke: #000000" points="258.9,12.2361 258.9,317 395.002,317 "/>
    <polygon style="fill: #ffffff" points="266.9,12.2361 258.9,-3.76393 250.9,12.2361 "/>
    <polygon style="fill: none; fill-opacity:0; stroke-width: 2; stroke: #000000" points="266.9,12.2361 258.9,-3.76393 250.9,12.2361 "/>
  </g>
  <g>
    <polyline style="fill: none; fill-opacity:0; stroke-width: 2; stroke: #000000" points="258.9,12.2361 258.9,169 350.002,169 "/>
    <polygon style="fill: #ffffff" points="266.9,12.2361 258.9,-3.76393 250.9,12.2361 "/>
    <polygon style="fill: none; fill-opacity:0; stroke-width: 2; stroke: #000000" points="266.9,12.2361 258.9,-3.76393 250.9,12.2361 "/>
  </g>
  <g>
    <polyline style="fill: none; fill-opacity:0; stroke-width: 2; stroke: #000000" points="258.9,12.2361 258.9,169 155.802,169 "/>
    <polygon style="fill: #ffffff" points="266.9,12.2361 258.9,-3.76393 250.9,12.2361 "/>
    <polygon style="fill: none; fill-opacity:0; stroke-width: 2; stroke: #000000" points="266.9,12.2361 258.9,-3.76393 250.9,12.2361 "/>
  </g>
  <g>
    <polyline style="fill: none; fill-opacity:0; stroke-width: 2; stroke: #000000" points="258.9,12.2361 258.9,80 144.652,80 "/>
    <polygon style="fill: #ffffff" points="266.9,12.2361 258.9,-3.76393 250.9,12.2361 "/>
    <polygon style="fill: none; fill-opacity:0; stroke-width: 2; stroke: #000000" points="266.9,12.2361 258.9,-3.76393 250.9,12.2361 "/>
  </g>
  <g>
    <polyline style="fill: none; fill-opacity:0; stroke-width: 2; stroke: #000000" points="258.9,12.2361 258.9,80 388.002,80 "/>
    <polygon style="fill: #ffffff" points="266.9,12.2361 258.9,-3.76393 250.9,12.2361 "/>
    <polygon style="fill: none; fill-opacity:0; stroke-width: 2; stroke: #000000" points="266.9,12.2361 258.9,-3.76393 250.9,12.2361 "/>
  </g>
  <g>
    <rect style="fill: #ffffff" x="620.006" y="58" width="77.6" height="28"/>
    <rect style="fill: none; fill-opacity:0; stroke-width: 2; stroke: #000000" x="620.006" y="58" width="77.6" height="28"/>
    <text font-size="16" style="fill: #000000;text-anchor:middle;font-family:sans-serif;font-style:normal;font-weight:700" x="658.806" y="78">UseCase</text>
  </g>
  <g>
    <rect style="fill: #ffffff" x="624.006" y="145" width="71.05" height="28"/>
    <rect style="fill: none; fill-opacity:0; stroke-width: 2; stroke: #000000" x="624.006" y="145" width="71.05" height="28"/>
    <text font-size="16" style="fill: #000000;text-anchor:middle;font-family:sans-serif;font-style:normal;font-weight:700" x="659.531" y="165">Activity</text>
  </g>
  <g>
    <rect style="fill: #ffffff" x="623.006" y="269" width="124.45" height="28"/>
    <rect style="fill: none; fill-opacity:0; stroke-width: 2; stroke: #000000" x="623.006" y="269" width="124.45" height="28"/>
    <text font-size="16" style="fill: #000000;text-anchor:middle;font-family:sans-serif;font-style:normal;font-weight:700" x="685.231" y="289">State Machine</text>
  </g>
  <g>
    <polyline style="fill: none; fill-opacity:0; stroke-width: 2; stroke: #000000" points="805.652,13.2361 805.652,283 747.456,283 "/>
    <polygon style="fill: #ffffff" points="813.652,13.2361 805.652,-2.76393 797.652,13.2361 "/>
    <polygon style="fill: none; fill-opacity:0; stroke-width: 2; stroke: #000000" points="813.652,13.2361 805.652,-2.76393 797.652,13.2361 "/>
  </g>
  <g>
    <polyline style="fill: none; fill-opacity:0; stroke-width: 2; stroke: #000000" points="805.652,13.2361 805.652,159 695.056,159 "/>
    <polygon style="fill: #ffffff" points="813.652,13.2361 805.652,-2.76393 797.652,13.2361 "/>
    <polygon style="fill: none; fill-opacity:0; stroke-width: 2; stroke: #000000" points="813.652,13.2361 805.652,-2.76393 797.652,13.2361 "/>
  </g>
  <g>
    <polyline style="fill: none; fill-opacity:0; stroke-width: 2; stroke: #000000" points="805.652,13.2361 805.652,72 697.606,72 "/>
    <polygon style="fill: #ffffff" points="813.652,13.2361 805.652,-2.76393 797.652,13.2361 "/>
    <polygon style="fill: none; fill-opacity:0; stroke-width: 2; stroke: #000000" points="813.652,13.2361 805.652,-2.76393 797.652,13.2361 "/>
  </g>
  <g>
    <rect style="fill: #ffffff" x="994.008" y="58" width="182.15" height="28"/>
    <rect style="fill: none; fill-opacity:0; stroke-width: 2; stroke: #000000" x="994.008" y="58" width="182.15" height="28"/>
    <text font-size="16" style="fill: #000000;text-anchor:middle;font-family:sans-serif;font-style:normal;font-weight:700" x="1085.08" y="78">Interaction Diagrams</text>
  </g>
  <g>
    <rect style="fill: #ffffff" x="895.008" y="138.25" width="65.05" height="28"/>
    <rect style="fill: none; fill-opacity:0; stroke-width: 2; stroke: #000000" x="895.008" y="138.25" width="65.05" height="28"/>
    <text font-size="16" style="fill: #000000;text-anchor:middle;font-family:sans-serif;font-style:normal;font-weight:700" x="927.533" y="158.25">Timing</text>
  </g>
  <g>
    <rect style="fill: #ffffff" x="846.008" y="244.25" width="181.35" height="28"/>
    <rect style="fill: none; fill-opacity:0; stroke-width: 2; stroke: #000000" x="846.008" y="244.25" width="181.35" height="28"/>
    <text font-size="16" style="fill: #000000;text-anchor:middle;font-family:sans-serif;font-style:normal;font-weight:700" x="936.683" y="264.25">Interaction Overview</text>
  </g>
  <g>
    <rect style="fill: #ffffff" x="1164.01" y="138.25" width="87.65" height="28"/>
    <rect style="fill: none; fill-opacity:0; stroke-width: 2; stroke: #000000" x="1164.01" y="138.25" width="87.65" height="28"/>
    <text font-size="16" style="fill: #000000;text-anchor:middle;font-family:sans-serif;font-style:normal;font-weight:700" x="1207.84" y="158.25">Sequence</text>
  </g>
  <g>
    <rect style="fill: #ffffff" x="1153.01" y="244.25" width="136.15" height="28"/>
    <rect style="fill: none; fill-opacity:0; stroke-width: 2; stroke: #000000" x="1153.01" y="244.25" width="136.15" height="28"/>
    <text font-size="16" style="fill: #000000;text-anchor:middle;font-family:sans-serif;font-style:normal;font-weight:700" x="1221.09" y="264.25">Communication</text>
  </g>
  <g>
    <polyline style="fill: none; fill-opacity:0; stroke-width: 2; stroke: #000000" points="1085.08,104.236 1085.08,258.25 1027.36,258.25 "/>
    <polygon style="fill: #ffffff" points="1093.08,104.236 1085.08,88.2361 1077.08,104.236 "/>
    <polygon style="fill: none; fill-opacity:0; stroke-width: 2; stroke: #000000" points="1093.08,104.236 1085.08,88.2361 1077.08,104.236 "/>
  </g>
  <g>
    <polyline style="fill: none; fill-opacity:0; stroke-width: 2; stroke: #000000" points="1085.08,104.236 1085.08,258.25 1153.01,258.25 "/>
    <polygon style="fill: #ffffff" points="1093.08,104.236 1085.08,88.2361 1077.08,104.236 "/>
    <polygon style="fill: none; fill-opacity:0; stroke-width: 2; stroke: #000000" points="1093.08,104.236 1085.08,88.2361 1077.08,104.236 "/>
  </g>
  <g>
    <polyline style="fill: none; fill-opacity:0; stroke-width: 2; stroke: #000000" points="1085.08,104.236 1085.08,152.25 1164.01,152.25 "/>
    <polygon style="fill: #ffffff" points="1093.08,104.236 1085.08,88.2361 1077.08,104.236 "/>
    <polygon style="fill: none; fill-opacity:0; stroke-width: 2; stroke: #000000" points="1093.08,104.236 1085.08,88.2361 1077.08,104.236 "/>
  </g>
  <g>
    <polyline style="fill: none; fill-opacity:0; stroke-width: 2; stroke: #000000" points="1085.08,104.236 1085.08,152.25 960.058,152.25 "/>
    <polygon style="fill: #ffffff" points="1093.08,104.236 1085.08,88.2361 1077.08,104.236 "/>
    <polygon style="fill: none; fill-opacity:0; stroke-width: 2; stroke: #000000" points="1093.08,104.236 1085.08,88.2361 1077.08,104.236 "/>
  </g>
  <g>
    <polyline style="fill: none; fill-opacity:0; stroke-width: 2; stroke: #000000" points="805.652,13.2361 805.652,72 994.008,72 "/>
    <polygon style="fill: #ffffff" points="813.652,13.2361 805.652,-2.76393 797.652,13.2361 "/>
    <polygon style="fill: none; fill-opacity:0; stroke-width: 2; stroke: #000000" points="813.652,13.2361 805.652,-2.76393 797.652,13.2361 "/>
  </g>
</svg>
